<svg width="36" height="36" viewBox="0 0 36 36" fill="none" xmlns="http://www.w3.org/2000/svg">
<path d="M36 18C36 27.9411 27.9411 36 18 36C8.05888 36 0 27.9411 0 18C0 8.05888 8.05888 0 18 0C27.9411 0 36 8.05888 36 18Z" fill="#113138"/>
<path d="M21.1349 16.81C21.0646 16.81 21.003 16.8656 20.9503 16.977C20.7277 17.4105 20.4904 17.8031 20.2384 18.1547C19.9923 18.5063 19.7433 18.8051 19.4913 19.0512C19.2394 19.2973 18.9904 19.4877 18.7443 19.6225C18.4982 19.7514 18.2667 19.8158 18.0499 19.8158C17.839 19.8158 17.6427 19.7719 17.4611 19.684C17.2853 19.5902 17.0919 19.4174 16.881 19.1654C16.6759 18.9135 16.4386 18.5648 16.1691 18.1195C15.9054 17.6742 15.5802 17.0941 15.1935 16.3793C15.129 16.2621 15.0616 16.1771 14.9913 16.1244C14.9269 16.0658 14.8683 16.0365 14.8155 16.0365C14.7394 16.0365 14.6691 16.1186 14.6046 16.2826C14.5402 16.4408 14.4845 16.6664 14.4376 16.9594C14.3907 17.2465 14.3527 17.5951 14.3234 18.0053C14.2999 18.4096 14.2882 18.8578 14.2882 19.35C14.2882 19.643 14.3029 19.9359 14.3321 20.2289C14.3673 20.5219 14.3849 20.8236 14.3849 21.1342C14.3849 21.2396 14.3556 21.3393 14.297 21.433C14.2384 21.5209 14.1593 21.5971 14.0597 21.6615C13.9659 21.7318 13.8517 21.7875 13.7169 21.8285C13.588 21.8695 13.4503 21.89 13.3038 21.89C13.0109 21.89 12.7999 21.7143 12.671 21.3627C12.5421 21.0111 12.4777 20.4486 12.4777 19.6752C12.4777 18.6967 12.5304 17.809 12.6359 17.0121C12.7472 16.2094 12.9025 15.5238 13.1017 14.9555C13.3068 14.3813 13.547 13.9389 13.8224 13.6283C14.1036 13.3119 14.4171 13.1537 14.7628 13.1537C15.0675 13.1537 15.3575 13.3295 15.6329 13.6811C15.9142 14.0268 16.2159 14.5893 16.5382 15.3686C16.6671 15.685 16.8048 15.9809 16.9513 16.2563C17.1036 16.5316 17.253 16.7719 17.3995 16.977C17.5519 17.1762 17.6984 17.3344 17.839 17.4516C17.9796 17.5629 18.1056 17.6186 18.2169 17.6186C18.3282 17.6186 18.4337 17.5951 18.5333 17.5482C18.6388 17.4955 18.756 17.3871 18.8849 17.223C19.0196 17.0531 19.1749 16.807 19.3507 16.4848C19.5323 16.1625 19.755 15.7318 20.0187 15.1928C20.1593 14.9115 20.2853 14.6771 20.3966 14.4896C20.5079 14.3021 20.6193 14.1527 20.7306 14.0414C20.8419 13.9242 20.9591 13.8422 21.0821 13.7953C21.2052 13.7426 21.3429 13.7162 21.4952 13.7162C21.6769 13.7162 21.8556 13.8129 22.0314 14.0063C22.2071 14.1996 22.3771 14.4574 22.5411 14.7797C22.7111 15.102 22.8751 15.477 23.0333 15.9047C23.1915 16.3324 23.3439 16.7807 23.4904 17.2494C23.6427 17.7182 23.7892 18.1957 23.9298 18.682C24.0763 19.1625 24.2169 19.6195 24.3517 20.0531C24.3868 20.182 24.4103 20.2729 24.422 20.3256C24.4396 20.3725 24.4484 20.4311 24.4484 20.5014C24.4484 20.601 24.4161 20.7006 24.3517 20.8002C24.2931 20.8939 24.214 20.9789 24.1144 21.0551C24.0148 21.1313 23.9005 21.1928 23.7716 21.2396C23.6486 21.2865 23.5255 21.31 23.4025 21.31C23.2384 21.31 23.1095 21.2924 23.0157 21.2572C22.9279 21.2162 22.8575 21.1459 22.8048 21.0463C22.7755 20.9936 22.7257 20.8529 22.6554 20.6244C22.5851 20.3959 22.5001 20.1264 22.4005 19.8158C22.3068 19.4994 22.2013 19.1654 22.0841 18.8139C21.9728 18.4623 21.8585 18.14 21.7413 17.8471C21.63 17.5482 21.5216 17.3021 21.4161 17.1088C21.3107 16.9096 21.2169 16.81 21.1349 16.81Z" fill="white"/>
</svg>
